<svg width="40" height="36" viewBox="0 0 40 36" fill="none" xmlns="http://www.w3.org/2000/svg">
<path d="M34.4633 0.604614H5.86516C3.06778 0.604614 0.800049 2.87234 0.800049 5.66973C0.800049 8.46712 3.06778 10.7348 5.86516 10.7348H34.4633C37.2075 10.7348 39.536 12.9953 39.536 15.8418V5.71159C39.4529 2.86508 37.2075 0.604614 34.4633 0.604614Z" fill="#FCCD86"/>
<path d="M39.2514 17.4142C38.9188 17.4142 38.5862 17.163 38.5862 16.7444V5.77699C38.5862 3.34908 36.5903 1.33978 34.1787 1.33978H6.11548C5.78284 1.33978 5.4502 1.08862 5.4502 0.670011C5.4502 0.335127 5.69967 0.000244141 6.11548 0.000244141H34.1787C37.3388 0.000244141 39.8336 2.59559 39.8336 5.69327V16.7444C39.9167 17.0793 39.6672 17.4142 39.2514 17.4142Z" fill="#703D92"/>
<path d="M0.665281 6.36291C0.332641 6.36291 0 6.11175 0 5.69314C0 2.51175 2.57796 0.00012207 5.65489 0.00012207H7.31809C7.65073 0.00012207 7.98337 0.251284 7.98337 0.669889C7.98337 1.00477 7.73389 1.33966 7.31809 1.33966H5.65489C3.24324 1.33966 1.2474 3.34896 1.2474 5.77687C1.2474 6.11175 0.997921 6.36291 0.665281 6.36291Z" fill="#703D92"/>
<path opacity="0.4" d="M34.2619 35.3304H5.6548C2.91051 35.3304 0.582031 33.0699 0.582031 30.2234V5.77692C0.582031 8.53971 2.82735 10.8839 5.6548 10.8839H34.2619C37.0061 10.8839 39.3346 13.1444 39.3346 15.9909V30.3909C39.2515 33.0699 37.0061 35.3304 34.2619 35.3304Z" fill="#C995F1"/>
<circle cx="12.5" cy="23.5" r="6.5" fill="white"/>
<path d="M11.075 20.1594C11.075 20.0978 11.1236 20.0491 11.1852 20.0491L12.2456 20.0427C12.3072 20.0427 12.3558 20.0913 12.3558 20.1529V20.996C12.3591 21.0576 12.3104 21.1063 12.2521 21.1063L11.1917 21.1128C11.1301 21.1128 11.0814 21.0641 11.0814 21.0025V20.1594H11.075Z" fill="#F7B24C"/>
<path d="M13.2742 20.1497C13.2742 20.0881 13.3228 20.0394 13.3844 20.0394L14.4448 20.033C14.5064 20.033 14.5551 20.0816 14.5551 20.1432V20.9863C14.5583 21.0479 14.5097 21.0966 14.4513 21.0966L13.3909 21.1031C13.3293 21.1031 13.2807 21.0544 13.2807 20.9928V20.1497H13.2742Z" fill="#F7B24C"/>
<path d="M11.0884 22.932L11.1078 27.3065L12.392 27.8058L12.3693 22.9255H13.2837L13.3032 27.2967L14.5873 27.7961L14.5646 22.9158H15.4174C16.1211 22.9093 16.6854 22.3289 16.6821 21.6187V20.8988L15.4077 20.9053V21.6252L10.2647 21.6511C9.56105 21.6544 8.99357 22.2316 9.00006 22.9417V23.8302L10.2777 23.8238V22.9352L11.0884 22.932Z" fill="#F7B24C"/>
<path fill-rule="evenodd" clip-rule="evenodd" d="M12.7037 17.5847C9.30856 17.6009 6.56844 20.3669 6.58465 23.7621C6.60087 27.1572 9.36693 29.8974 12.7621 29.8811C16.1572 29.8649 18.8974 27.0989 18.8811 23.7037C18.8649 20.3086 16.0989 17.5684 12.7037 17.5847ZM5.46591 23.7686C5.44645 19.7541 8.68595 16.4854 12.6972 16.4659C16.7117 16.4465 19.9804 19.686 19.9999 23.6972C20.0193 27.7117 16.7798 30.9804 12.7686 30.9999C8.75405 31.0193 5.48536 27.7798 5.46591 23.7686Z" fill="#F7B24C"/>
<path d="M34.262 36.0003H5.65489C2.4948 36.0003 0 33.4049 0 30.3072V5.77701C0 5.44212 0.24948 5.10724 0.665281 5.10724C0.997921 5.10724 1.33056 5.3584 1.33056 5.77701C1.33056 8.20491 3.3264 10.2142 5.73805 10.2142H34.3451C37.5052 10.2142 40 12.8096 40 15.9072V30.3072C39.9168 33.4049 37.3389 36.0003 34.262 36.0003ZM1.2474 9.37701V30.3072C1.2474 32.7351 3.24324 34.7444 5.65489 34.7444H34.262C36.6736 34.7444 38.6694 32.7351 38.6694 30.3072V15.9072C38.6694 13.4793 36.6736 11.47 34.262 11.47H5.65489C3.90852 11.47 2.32848 10.6328 1.2474 9.37701Z" fill="#703D92"/>
<path d="M24 23.1558C24 20.0422 26.5241 17.5181 29.6378 17.5181H39.2V28.7936H29.6378C26.5241 28.7936 24 26.2695 24 23.1558Z" fill="#FDD292"/>
<path d="M39.2514 16.9955H29.6049C26.2785 16.9955 23.5342 19.7583 23.5342 23.1071C23.5342 26.4559 26.2785 29.2187 29.6049 29.2187H39.2514C39.5841 29.2187 39.9167 28.9676 39.9167 28.549V17.5815C39.9167 17.2466 39.6672 16.9955 39.2514 16.9955ZM38.6693 27.9629H29.6049C26.9437 27.9629 24.7816 25.7862 24.7816 23.1071C24.7816 20.428 26.9437 18.2513 29.6049 18.2513H38.6693V27.9629Z" fill="#703D92"/>
<path d="M32.183 23.1071C32.183 24.5304 31.0187 25.6188 29.6882 25.6188C28.2744 25.6188 27.1934 24.4467 27.1934 23.1071C27.1934 21.6839 28.3576 20.5955 29.6882 20.5955C31.0187 20.5955 32.183 21.6839 32.183 23.1071Z" fill="#703D92"/>
</svg>
